<svg width="14" height="18" viewBox="0 0 14 18" fill="none" xmlns="http://www.w3.org/2000/svg">
<path d="M0.919678 0.780334H3.95922V4.24178L3.04059 7.29968L3.95922 10.5068V17.5439H0.919678V0.780334Z" fill="white"/>
<path fill-rule="evenodd" clip-rule="evenodd" d="M7.25638 13.1006C10.8427 13.1006 13.7499 10.2552 13.7499 6.74517C13.7499 3.23518 10.8427 0.389771 7.25638 0.389771C4.98352 0.389771 3.16761 1.89325 2.00744 3.62388C1.62632 4.19238 1.90711 4.70778 2.22042 5.28289C2.45826 5.71946 2.71485 6.19045 2.71485 6.74517C2.71485 7.31666 2.51487 7.87052 2.32465 8.39737C2.03437 9.20132 1.76681 9.94234 2.26733 10.5869C3.45329 12.1144 5.14506 13.1006 7.25638 13.1006ZM7.27412 10.1708C9.13085 10.1708 10.636 8.63709 10.636 6.74517C10.636 4.85325 9.13085 3.31956 7.27412 3.31956C5.41738 3.31956 3.9122 4.85325 3.9122 6.74517C3.9122 8.63709 5.41738 10.1708 7.27412 10.1708Z" fill="white"/>
<path d="M8.47241 10.9121H12.692V13.7306H9.19188L8.47241 10.9121Z" fill="#F2C94C"/>
</svg>
